<svg width="25" height="26" viewBox="0 0 25 26" fill="none" xmlns="http://www.w3.org/2000/svg">
<path d="M12.5049 7.38477C9.39941 7.38477 6.89453 9.88965 6.89453 12.9951C6.89453 16.1006 9.39941 18.6055 12.5049 18.6055C15.6104 18.6055 18.1152 16.1006 18.1152 12.9951C18.1152 9.88965 15.6104 7.38477 12.5049 7.38477ZM12.5049 16.6426C10.498 16.6426 8.85742 15.0068 8.85742 12.9951C8.85742 10.9834 10.4932 9.34766 12.5049 9.34766C14.5166 9.34766 16.1523 10.9834 16.1523 12.9951C16.1523 15.0068 14.5117 16.6426 12.5049 16.6426V16.6426ZM19.6533 7.15527C19.6533 7.88281 19.0674 8.46387 18.3447 8.46387C17.6172 8.46387 17.0361 7.87793 17.0361 7.15527C17.0361 6.43262 17.6221 5.84668 18.3447 5.84668C19.0674 5.84668 19.6533 6.43262 19.6533 7.15527ZM23.3691 8.4834C23.2861 6.73047 22.8857 5.17773 21.6016 3.89844C20.3223 2.61914 18.7695 2.21875 17.0166 2.13086C15.21 2.02832 9.79492 2.02832 7.98828 2.13086C6.24023 2.21387 4.6875 2.61426 3.40332 3.89355C2.11914 5.17285 1.72363 6.72559 1.63574 8.47852C1.5332 10.2852 1.5332 15.7002 1.63574 17.5068C1.71875 19.2598 2.11914 20.8125 3.40332 22.0918C4.6875 23.3711 6.23535 23.7715 7.98828 23.8594C9.79492 23.9619 15.21 23.9619 17.0166 23.8594C18.7695 23.7764 20.3223 23.376 21.6016 22.0918C22.8809 20.8125 23.2813 19.2598 23.3691 17.5068C23.4717 15.7002 23.4717 10.29 23.3691 8.4834V8.4834ZM21.0352 19.4453C20.6543 20.4023 19.917 21.1396 18.9551 21.5254C17.5146 22.0967 14.0967 21.9648 12.5049 21.9648C10.9131 21.9648 7.49023 22.0918 6.05469 21.5254C5.09766 21.1445 4.36035 20.4072 3.97461 19.4453C3.40332 18.0049 3.53516 14.5869 3.53516 12.9951C3.53516 11.4033 3.4082 7.98047 3.97461 6.54492C4.35547 5.58789 5.09277 4.85059 6.05469 4.46484C7.49512 3.89355 10.9131 4.02539 12.5049 4.02539C14.0967 4.02539 17.5195 3.89844 18.9551 4.46484C19.9121 4.8457 20.6494 5.58301 21.0352 6.54492C21.6064 7.98535 21.4746 11.4033 21.4746 12.9951C21.4746 14.5869 21.6064 18.0098 21.0352 19.4453Z" fill="white"/>
</svg>
